<svg version="1.0" id="Layer_1" xmlns="http://www.w3.org/2000/svg" xmlns:xlink="http://www.w3.org/1999/xlink" x="0" y="0" viewBox="0 0 7930.65 3884.5" enable-background="new 0 0 7930.65 3884.5" xml:space="preserve"><defs><path id="SVGID_1_" d="M289.12 78.23h7774.46v3758.56H289.12z"/></defs><clipPath id="SVGID_00000033360686686169641610000003532259018708468891_"><use xlink:href="#SVGID_1_" overflow="visible"/></clipPath><g clip-path="url(#SVGID_00000033360686686169641610000003532259018708468891_)"><defs><path id="SVGID_00000035520774626483592540000017915539901824151946_" d="M289.12 78.23h7774.46v3758.56H289.12z"/></defs><clipPath id="SVGID_00000015347311349179573860000002026683822154214058_"><use xlink:href="#SVGID_00000035520774626483592540000017915539901824151946_" overflow="visible"/></clipPath><path clip-path="url(#SVGID_00000015347311349179573860000002026683822154214058_)" fill="#070707" d="M3137.13 1623.95c-.02 14.6-1.26 35.4-7.02 59.43-23.27 160.96-124.04 215.01-256.53 229.12-20.01 2.12-125.2 10.96-206.9-61.78-56.56-50.36-74.34-115.36-79.71-136.02-9.28-35.66-9.14-64.28-8.94-82.07 1.87-161.92 6.36-425.59 6.36-538.42v-19.17c51.01-.16 100.89-.09 153.47-.01.26 7.71.71 14.7.71 21.7.03 173.87.06 374.61 0 548.48-.01 19.77 2.93 38.98 10.12 57.89.67 1.72 11.97 24.27 32.82 39.46 50.93 37.1 139.03 22.27 174.81-22.98 11.64-12.38 14.2-44.86 17.13-72.59 4.65-181.3-.05-365.65-.05-548.48v-21.17c24.32-4.19 142.68-6.27 160.7-1.3 0 10.8-1.4 83.23-1.14 94.85 2.04 88.2-2.27 178.92 3.41 269.8 2.15 12.16 5.57 29.07 17.61 46 22.16 21.02 43.44 31.48 95.99 41.47 114.74 17.61 184.01 6.87 237.99 6.82 15.66-.01 47.39-2.7 63.05-2.85 18.75-.16 51.12-13.34 60.77-26.69 12.65-17.52 18.88-29.76 21.93-49.86 2.09-13.85 3.07-27.93 3.1-41.91.25-105.44.14-210.88.14-316.32v-21.18c51.26 0 110.89-.88 162.33-.88.49 3.93 1.5 8.17 1.5 12.42.09 116.65.7 233.32-.24 349.96-.39 48.3-10.41 101.3-43.17 137.08-42.22 52.82-109.82 86.9-191.26 92.77-98.52.92-197.03 2.56-295.56 3-33.73.16-27.93-1.96-61.49-4.89-25.55.54-53.76-19.72-71.93-41.68m-2075.09-550.21c51.88.18 103.75.38 155.64.57.26 12.5.64 33.79.56 60.2-.33 113.3-1.56 176.27.18 255.04 4.93 62.47 18.7 78.45 35.27 94.91 9.44 9.37 34 29.52 69.17 38.55 0 0 5.95 1.53 12.16 2.58 31.85 5.42 119.24 2.01 164.75-44.03 26.88-27.21 29.12-59.13 28.77-198.85-.15-65.95-.84-136.77-2.27-212.01 50.81 0 104.54-.85 155.02-.85.34 5.61.99 10.99.99 16.38.02 50.34 4.71 114.52.38 286.27-.31 12.31-.8 31.46-1.5 55.1-3.57 34-9.56 68.97-28.37 103.31-31.95 58.32-83.09 87.44-106.98 100.35-133.68 72.24-291.12 6.33-314.01-3.63-3.95.09-7.18.31-9.2.47.85 23.26-.59 69.38-24.74 120.07-29.15 61.15-74.67 93.91-95.59 107.04-65.68 41.2-130.51 40.48-153.82 39.1v-130.86c8.72.45 21.55.03 35.52-5 37.09-13.37 69.56-36.63 78.36-107.22 14.5-161.15 2.33-271.79-.08-523.23-.16-14.92-.26-33.25-.21-54.26M452.1 1407.45v18.48c0 75.65.06 151.3-.03 226.94-.03 20.05 5.05 39.12 14.83 57.35 13.21 24.64 35.23 40.42 67.02 46.07 24.74 4.4 49.48 4.25 73.8-1.71 25.88-6.34 44.6-20.15 56.55-40.35 11.52-19.5 16.8-40.1 16.69-61.91-.28-54.26-.09-108.53-.09-162.79V818.19h155.35c.21 6.32.61 12.66.61 18.99.03 169.38.03 338.76.03 508.14 0 104.7 1.02 209.4-.39 314.09-.88 65.39-26.06 124.13-82.93 170.56-60.88 49.72-136.31 64.64-218.92 58.5-30.79-2.29-60.56-8.86-88.6-20.03-75.06-29.91-118.4-81.29-138.81-147.02-6.19-19.96-9.86-41.03-10.15-61.63-1.15-80.02-.48-160.06-.44-240.08.01-3.76.62-7.52 1.02-12.24H452.1zM2275.45 1662c-157.05 1.21-271.19 2.39-428.44 3.6 0-42.13-1.14-104.64-1.14-146.54 107.75-1.14 171.19 5.31 279.84 4.16.76-4.92.37-9.05.38-12.49.05-56.78-.76-87.1 0-153.74 1.23-86.43-5.59-108.02-20.99-131.63-19.26-22.1-46.55-30.08-66.46-33.3-6.5-1.29-12.63-1.71-19.53-1.87.28-19.88 2.58-37.41 3.97-55.86 2.23-29.54 4.59-56.82 5.67-84.81 10.71.4 21.49.86 32.35 1.38 7.48.36 14.93.72 22.34 1.13 0 0 25.92 2.66 52.42 11.9 26.73 9.32 45.9 18.46 62.52 30.02 14.81 10.31 24.39 20.04 27.75 23.54 3.78 3.91 11.5 12.24 19.57 24.06 4.18 6.12 16.24 24.55 24.47 50.53 6.86 21.63 7.5 37.25 8.24 92.68.53 39.35.79 59.03.7 69.05-1.22 139.68 7.58 187.91-2.77 298.84-.37 4.13-.71 7.47-.89 9.35m2234.56 11.5h-147.9c1.1-283.47 2.22-566.02 3.32-849.5h148.23c.52 282.91-2.61 565.34-3.65 849.5m-483.11-599.57h161.22c.46 5.77 1.21 10.87 1.22 15.95.06 190.06 1.41 380.14-.62 570.17-.83 77.7-33.49 145.77-106.05 196.02-49.84 34.52-108.46 48.1-171.6 49.21-1.89.03-3.8-.76-6.75-1.38v-137.09c6.9-.69 14.04-1.47 21.19-2.1 42.65-3.71 72.5-22.19 88.52-56.56 9.51-20.42 13.05-41.61 13.02-63.63-.26-182.44-.15-364.87-.15-547.31v-23.28m274.86-362.81c-2.38-42.6 2.03-86.54-.43-130.59 2.47-.3 52.11.32 102.31.88 46.28.53 47.71.02 62.74.39 15.56.39 81.08-1.1 124.82 6.87 28.28 5.16 72.71 24.61 126.85 63.99-23.86 33.32-52.25 64.38-87.09 100.73-16.76-15.02-27.5-21.26-40.8-29.21-1.8-1.08-11.07-5.77-24.22-9.43a130.413 130.413 0 00-25.67-4.43c-33.99-1.16-61.7-1.01-80.67-1.17-27.8-.24-65.08.02-124.11 1.92-10.37.33-20.77.05-33.73.05m-880.25 1062.51h341.27v139.61h-341.27zm-1769.79 4.52v126.78c-21.43 3.7-314.1 4.67-350.36 1.16v-127.06c21.27-3.31 312.62-4.17 350.36-.88m-437.07-939.86V987.4h-151.48V839.75c15.37-3.75 120.33-4.84 151.48-1.46m1719.31-47.24v153.57h-157.33V792.21c51.6-2.45 103.14-.61 157.33-1.16"/><path clip-path="url(#SVGID_00000015347311349179573860000002026683822154214058_)" fill="#D81921" d="M6763.23 2824.32c242.35-1.52 484.69-3.03 727.04-4.55-246.7-913.84-493.4-1827.68-740.1-2741.54h-1084.6c-134.85 510.27-269.7 1020.55-404.53 1530.82-97.78-.46-200.77.1-304.8.51-43.94 172.67-61.35 259-119.66 496.05 74.38-1.25 161.73-.68 293.58-1.29-63.02 238.49-126.05 476.96-189.06 715.44 238.74.63 477.49 1.26 716.24 1.9 60.51-227.99 121.03-455.99 181.54-683.99 109.03 25.34 151.97 64.32 201.25 110.57 14.6 13.7 25.77 26.02 33.17 34.58 134.06-133.66 260.53-255.98 343.07-355.19-43.21-44.26-111.24-105.91-205.76-161.14-80.93-47.29-139.29-79.81-245.56-104.18 81.66-307.65 163.31-615.29 244.95-922.93l553.23 2084.94"/></g><g clip-path="url(#SVGID_00000033360686686169641610000003532259018708468891_)"><defs><path id="SVGID_00000163070781970238986080000011209379753822714521_" d="M5266.6 1610.52l231.16-874.74L5670 83.98h1075.79l392.71 1454.73 344.29 1275.37-2.87.02-712.27 4.45-262.16-988-289.94-1092.64-5.55-20.92-5.56 20.92-191.25 720.6-53.71 202.33-1.52 5.74 5.79 1.33c104.59 23.99 160.84 54.98 243.96 103.54 72.87 42.58 140.44 95.22 200.92 156.5-69.28 82.59-170.05 182.63-276.66 288.44-19.22 19.07-38.71 38.43-58.4 58.04a462.79 462.79 0 00-29.53-30.39c-47.05-44.14-91.49-85.84-203.87-111.96l-5.42-1.26-1.44 5.39-77.73 292.84-102.68 386.86-704.38-1.86 99.16-375.24 88.01-333 1.91-7.25-7.49.03c-49.69.23-93.06.29-131.79.34-61.07.08-109.99.15-154.41.82 26.29-107.01 44.22-183.23 60.1-250.64 18.16-77.23 33.9-144.08 56.7-233.82l40.02-.16c61.31-.25 122.05-.51 181.36-.51 26.62 0 52.96.06 78.92.17l4.45.02 1.14-4.29zm398.97-1532.3c-134.84 510.29-269.68 1020.55-404.53 1530.82-25.96-.11-52.32-.16-78.94-.16-73.63 0-149.45.38-225.85.67-43.92 172.68-61.35 259.01-119.66 496.07 74.4-1.25 161.74-.69 293.58-1.29l-189.06 715.44c238.75.63 477.49 1.26 716.24 1.9 60.51-228 121.03-456 181.55-684 109.02 25.35 151.96 64.33 201.24 110.58a453.52 453.52 0 0133.18 34.58c134.04-133.68 260.52-255.98 343.07-355.19-43.22-44.26-111.26-105.91-205.76-161.15-80.93-47.29-139.3-79.79-245.57-104.17 81.66-307.65 163.31-615.29 244.97-922.93 184.41 694.97 368.82 1389.94 553.22 2084.92 242.36-1.5 484.69-3.02 727.04-4.54L6750.19 78.22H5665.57z"/></defs><clipPath id="SVGID_00000132083198445926724700000016769321438832591002_"><use xlink:href="#SVGID_00000163070781970238986080000011209379753822714521_" overflow="visible"/></clipPath><defs><filter id="Adobe_OpacityMaskFilter" filterUnits="userSpaceOnUse" x="4836.58" y="78.22" width="2653.69" height="2746.09"><feColorMatrix values="1 0 0 0 0 0 1 0 0 0 0 0 1 0 0 0 0 0 1 0"/></filter></defs><mask maskUnits="userSpaceOnUse" x="4836.58" y="78.22" width="2653.69" height="2746.09" id="SVGID_00000116208058680438744530000005957517527084980911_"><g filter="url(#Adobe_OpacityMaskFilter)"><linearGradient id="SVGID_00000034801795517829024280000008425823146309041053_" gradientUnits="userSpaceOnUse" x1="4582.066" y1="3894.132" x2="4593.553" y2="3894.132" gradientTransform="matrix(231.033 0 0 -231.033 -1053771.875 901124.063)"><stop offset="0" stop-color="#4d4d4d"/><stop offset=".131" stop-color="#4d4d4d"/><stop offset=".303" stop-color="#535353"/><stop offset=".54" stop-color="#646464"/><stop offset=".813" stop-color="#818181"/><stop offset=".998" stop-color="#999"/><stop offset="1" stop-color="#999"/></linearGradient><path clip-path="url(#SVGID_00000132083198445926724700000016769321438832591002_)" fill="url(#SVGID_00000034801795517829024280000008425823146309041053_)" d="M4836.58 78.22h2653.69v2746.09H4836.58z"/></g></mask><linearGradient id="SVGID_00000174576893550168115870000015827518573501371783_" gradientUnits="userSpaceOnUse" x1="4582.066" y1="3894.132" x2="4593.553" y2="3894.132" gradientTransform="matrix(231.033 0 0 -231.033 -1053771.875 901124.063)"><stop offset="0" stop-color="#231f20"/><stop offset=".131" stop-color="#231f20"/><stop offset=".998" stop-color="#231f20"/><stop offset="1" stop-color="#231f20"/></linearGradient><path clip-path="url(#SVGID_00000132083198445926724700000016769321438832591002_)" mask="url(#SVGID_00000116208058680438744530000005957517527084980911_)" fill="url(#SVGID_00000174576893550168115870000015827518573501371783_)" d="M4836.58 78.22h2653.69v2746.09H4836.58z"/></g><g clip-path="url(#SVGID_00000033360686686169641610000003532259018708468891_)"><defs><path id="SVGID_00000121964275689663967980000016359872339960542351_" d="M289.12 78.23h7774.46v3758.56H289.12z"/></defs><clipPath id="SVGID_00000175291411238284049880000015812766855376501646_"><use xlink:href="#SVGID_00000121964275689663967980000016359872339960542351_" overflow="visible"/></clipPath><path clip-path="url(#SVGID_00000175291411238284049880000015812766855376501646_)" d="M408.44 2644.19l-34.82 110.62h-73.06l136.38-434.42h92.62l142.27 434.42h-78.15l-36.36-110.62H408.44zm132.2-67.52c-31.34-99.39-50.18-158.68-59.38-195.69h-.57c-9.71 40.78-30.61 110.74-55.78 195.69h115.73zm293.13-1.72v179.86h-72.66v-434.42H928.1c84.43 0 129.73 50.89 129.73 118.22 0 57.67-29.07 90.14-60.81 102.58 23.91 8.48 52.93 32.28 52.93 109.23v20.48c0 29.46-.28 64.31 5.54 83.91h-70.66c-7.02-18.84-7.71-51.82-7.71-96.11v-7.34c0-52.42-12.61-76.41-78.74-76.41h-64.61zm0-188.81v123.05h76.51c51.44 0 72.38-21.41 72.38-62.02 0-39.05-23.18-61.02-69.02-61.02l-79.87-.01zm413.26-65.75v434.42h-74.09v-434.42h74.09zm199.84 323.8l-34.82 110.62h-73.06l136.38-434.42h92.62l142.27 434.42h-78.15l-36.36-110.62h-148.88zm132.19-67.52c-31.34-99.39-50.18-158.68-59.38-195.69h-.57c-9.71 40.78-30.61 110.74-55.78 195.69h115.73zm220.48 178.14v-434.42h93.35c51.85 98.92 154.03 288.61 173.55 335.9h.97c-4.23-48.91-4.06-121.98-4.06-193.15v-142.76h67.85v434.42h-88.32c-45.79-88.11-156.26-300.61-177.61-350.3h-.97c2.86 41.94 3.49 125.82 3.49 203.84v146.46h-68.25zm639.16-434.42h151.34c113.67 0 188.84 83.29 188.84 212.12 0 127.32-73.05 222.3-191.81 222.3H2438.7v-434.42zm144.6 367.78c81.64 0 118.81-65.81 118.81-155.1 0-76.04-34.42-146.05-118.41-146.05h-70.9v301.15h70.5zm381.88-367.78v434.42h-74.09v-434.42h74.09zm397.36 241.67h-191.5v125.23h210.92l-8.97 67.52h-274.04v-434.42h272.27v67.52h-200.18v106.64h191.5v67.51zm171.32 67.61c9.59 46.53 39.4 68.75 89.07 68.75 51.09 0 72.27-23.91 72.27-58.88 0-38.17-19.19-56.62-90.74-75.21-102.56-26.76-131.1-67.04-131.1-126.52 0-71.88 48.68-123.7 140.37-123.7 101.18 0 141.91 61.25 147.45 122.57h-74.83c-5.13-30.82-21.51-60.77-74.73-60.77-39.27 0-62.28 18.51-62.28 52.98 0 33.84 18.67 47.4 84.34 64.41 114.13 29.9 137.5 77.32 137.5 136.69 0 76.15-52.05 130.73-153.79 130.73-99.96 0-149.33-56.14-158.36-131.04h74.83zm603.78-67.61h-191.5v125.23h210.92l-8.97 67.52h-274.04v-434.42h272.27v67.52h-200.18v106.64h191.5v67.51zm119.1-241.67h74.09v366.9h199.95l-8.92 67.52h-265.13v-434.42zM373.41 3195.53v163.51c0 26.73 12.62 40.36 37.87 40.88 25.92-.52 38.89-14.15 38.89-40.88v-163.51h85.33v171.85a97.06 97.06 0 01-3.91 24.55c-2.71 9.21-13.42 40.45-45.22 57.76-15.71 8.53-31.02 10.67-41.76 10.96h-71.2v215.49h-84.29l1.01-480.61h83.28zm407.07 0h85.03v480.61h-85.03zm396.93 0h85.8v480.61h-85.8zm397.49 0h85.43v480.61h-85.43zm1996.25 190.05c21.59 19.64 32.51 48.82 32.51 86.84v181.37H2504.99l-3.77.09-33.52.29-7.63-.15v6.89c0 56.17-14.47 98.78-42.96 126.81-25.73 25.04-61.68 37.67-106.94 37.67h-198.14c-43.07 0-79.37-13.67-107.97-40.89-30.21-28.83-45.49-68-45.49-116.36v-244.31h84.68v255.68c0 19.18 7.12 34.69 21.25 45.94 11.72 9.3 33.17 14.13 47.99 14.13h192.7c31.24 0 68.34-13.78 68.34-79.48v-6.89h-128.27v-82.36l1272.89.11V3452.2c0-19.18-27.2-42.04-74.98-42.04-14.13 0-29.75 1.95-46.52 5.86-13.21 2.87-26.76 6.89-40.43 11.95l-21.25 14.24-22.4-61.91 261.08-204.91 32.16 86.26-139.1 92.81 20.33 1.26c36.55 2.3 64.92 12.29 84.11 29.86"/><path clip-path="url(#SVGID_00000175291411238284049880000015812766855376501646_)" d="M3553.34 3144.49l-239.37 188.37.23-47.44 226.51-176.08zm3939.53-2.03v86.95h-92.58v-86.49c19.87-.8 39.63-.69 60.53-.57 10.57.11 21.25.23 32.05.11m-1872.31 607.38v86.95h-92.58v-86.49c19.87-.8 39.63-.69 60.53-.57 10.57.11 21.26.23 32.05.11m-513.36-607.38v86.95h-92.58v-86.49c19.87-.8 39.63-.69 60.53-.57 10.57.11 21.25.23 32.05.11m374.77 607.38v86.95h-92.58v-86.49c19.87-.8 39.63-.69 60.53-.57 10.57.11 21.25.23 32.05.11m1926.69-430.65v213.64c0 24.58-33.82 38.13-60.46 38.13h-334.95l1.72-8.27c.46-1.95.57-3.79.57-5.74v-7.47c0-47.32-12.86-85.92-38.13-114.75-26.53-29.75-63.4-44.91-109.46-44.91s-82.7 15.16-109.12 44.91c-25.5 28.83-38.48 67.42-38.48 114.75v21.48h-748.44c-27.45 0-42.5-13.55-42.5-38.13v-354.69h-84.19v368.71c0 72.82 46.29 108.2 141.74 108.2h750.39l1.95 3.68c25.84 49.39 67.88 73.4 128.65 73.4 61.22 0 103.15-24.01 128.3-73.28l1.84-3.79h352.98c87.52 0 141.85-49.96 141.85-130.37V3319.2h-84.26zm-539.79 345.62c-34.34 0-46.63-60.3-46.63-116.7 0-31.36 2.53-54.21 7.7-69.72 8.84-26.19 25.61-31.7 38.02-31.7 12.29 0 28.72 5.51 37.67 31.7 5.17 15.62 7.7 38.36 7.7 69.72-.01 74.2-16.21 116.7-44.46 116.7m-1137.02-360.32v234.78c0 76.61-46.29 113.83-141.4 113.83h-429.73c-24.81 0-46.63-3.1-65.01-9.07-14.36-4.36-26.76-10.91-36.76-19.18l-4.02-3.33-4.36 2.99c-11.6 8.27-25.04 14.82-40.09 19.53-19.76 5.97-43.07 9.07-69.49 9.07h-745.45c-180.22.34-225.93-1.61-232.71-3.33l-4.14-1.03c-14.24-3.45-33.65-8.16-45.03-23.32l-5.63-7.47-7.81 10.8c-9.76 13.55-15.05 21.02-35.15 24.35h-171.03v-84.88h.69v-.11c12.98 0 26.07.11 40.66.46h92c3.79 0 7.24-.23 10.45-.69l5.74-.8.23-5.74c.11-1.38.11-2.53.11-4.48 0-11.14-.11-20.45-.11-29.4-.11-15.85-.23-30.78.11-53.76.57-46.52-2.64-60.07-12.86-75.81-9.19-10.68-22.51-17.57-39.28-20.33-1.61-.34-3.1-.57-4.59-.69.23-4.71.69-9.3 1.03-14.01.34-3.1.57-6.2.8-9.3l.69-9.19c.8-10.22 1.61-20.1 2.07-29.98 3.45.11 6.89.23 10.34.46l11.49.57c.11 0 13.21 1.38 26.3 6.09 13.67 4.82 23.43 9.53 31.59 15.39 7.7 5.4 19.18 14.82 20.79 16.54 1.95 2.07 6.55 6.89 10.34 12.52 4.59 6.78 8.27 14.82 11.14 23.89 3.22 10.57 3.68 18.03 4.02 48.24.34 21.13.46 31.82.46 37.22l-.23 24.81c-.23 22.97-.34 36.18-.57 47.09l-.11 1.15.34 1.03c3.68 12.52 27.45 24.24 267.86 19.53 8.73-.23 15.05-.34 17.8-.34h777.88c13.55 0 24.81-3.68 33.65-10.91l2.53-2.07v-251.09h85.48v221.45c0 27.45 16.77 42.61 47.21 42.61h455.49c26.65 0 41.35-14.13 41.35-39.63v-224.44h84.92z"/></g><linearGradient id="SVGID_00000104703951994021957060000003278015777813430966_" gradientUnits="userSpaceOnUse" x1="5227.183" y1="2340.877" x2="6398.39" y2="1701.729"><stop offset=".172" stop-opacity="0"/><stop offset=".804"/></linearGradient><path clip-path="url(#SVGID_00000033360686686169641610000003532259018708468891_)" fill="url(#SVGID_00000104703951994021957060000003278015777813430966_)" fill-opacity=".62" d="M5048.19 2473.68l326.82 257.4 468.19-598.77-648.08-244.81z"/><path fill="#D81921" d="M5957.81 1666.21c-62.05-14.23-133.17-29.61-241.97-39.62-78.19-7.19-179.8-12.97-293.08-15.53-51.65-1.16-101.75 3.58-157.63 3.32-43.62 165.09-83.75 319.41-127.37 484.5 146.23-3.14 302.79-.28 468.27 11.27a5115.1 5115.1 0 01228.81 21.11c42.05-158.45 80.92-306.59 122.97-465.05"/></svg>