<svg width="548" height="276" fill="none" xmlns="http://www.w3.org/2000/svg"><g clip-path="url(#clip0_1_6)"><mask id="mask0_1_6" style="mask-type:luminance" maskUnits="userSpaceOnUse" x="19" y="5" width="539" height="268"><path d="M19.978 5.558h537.207V272.61H19.978V5.558z" fill="#fff"/></mask><g mask="url(#mask0_1_6)"><mask id="mask1_1_6" style="mask-type:luminance" maskUnits="userSpaceOnUse" x="19" y="5" width="539" height="268"><path d="M19.978 5.558h537.207V272.61H19.978V5.558z" fill="#fff"/></mask><g mask="url(#mask1_1_6)"><path d="M216.773 115.384a18.775 18.775 0 01-.486 4.223c-1.607 11.436-8.571 15.277-17.725 16.279-1.383.151-8.652.779-14.297-4.389-3.908-3.579-5.137-8.197-5.508-9.665-.641-2.534-.632-4.567-.618-5.831.13-11.505.44-30.239.44-38.256v-1.362c3.524-.011 6.971-.006 10.604 0 .018.547.049 1.044.049 1.541.003 12.354.005 26.617 0 38.971 0 1.405.203 2.769.7 4.113.046.122.827 1.724 2.268 2.804 3.519 2.636 9.606 1.582 12.079-1.633.804-.88.981-3.187 1.183-5.158.322-12.881-.003-25.98-.003-38.97v-1.504c1.68-.298 9.859-.446 11.104-.093 0 .768-.097 5.914-.079 6.74.141 6.266-.156 12.712.236 19.169.149.864.385 2.066 1.217 3.269 1.531 1.493 3.002 2.236 6.633 2.946 7.928 1.251 12.715.488 16.445.485 1.082-.001 3.274-.192 4.356-.203 1.296-.011 3.533-.948 4.199-1.896.874-1.245 1.305-2.115 1.516-3.543.144-.984.212-1.984.214-2.977.017-7.492.01-14.984.01-22.475v-1.505c3.542 0 7.662-.063 11.216-.063.034.28.104.58.104.883.006 8.288.048 16.577-.016 24.865-.027 3.432-.72 7.197-2.983 9.74-2.918 3.752-7.589 6.174-13.216 6.591-6.808.065-13.615.182-20.423.213-2.331.012-1.93-.139-4.249-.347-1.766.038-3.715-1.401-4.97-2.962zM73.386 76.291l10.755.04c.017.889.044 2.401.038 4.278-.023 8.05-.108 12.524.013 18.12.34 4.439 1.292 5.575 2.437 6.744.652.666 2.35 2.098 4.78 2.739 0 0 .41.109.84.184 2.2.385 8.239.142 11.384-3.129 1.857-1.933 2.012-4.201 1.988-14.128a931.569 931.569 0 00-.157-15.064c3.511 0 7.223-.06 10.711-.06.024.398.069.78.069 1.163.001 3.577.325 8.137.026 20.34-.021.875-.055 2.236-.104 3.915-.246 2.416-.66 4.901-1.96 7.341-2.208 4.143-5.741 6.212-7.392 7.13-9.237 5.132-20.116.449-21.698-.258a11.07 11.07 0 00-.636.033c.06 1.653-.04 4.93-1.71 8.531a18.182 18.182 0 01-6.604 7.606c-4.539 2.927-9.018 2.876-10.63 2.778v-9.298c.603.032 1.49.002 2.455-.355 2.563-.95 4.807-2.603 5.415-7.618 1.002-11.45.16-19.312-.006-37.177-.01-1.06-.018-2.362-.014-3.855zM31.24 100.002v1.313c0 5.375.004 10.75-.002 16.124-.003 1.425.349 2.78 1.024 4.075.913 1.751 2.435 2.872 4.631 3.273 1.71.313 3.42.302 5.1-.121 1.788-.451 3.082-1.432 3.907-2.867a8.571 8.571 0 001.154-4.399c-.02-3.855-.007-7.711-.007-11.566v-47.7h10.735c.015.449.042.9.042 1.349.002 12.035.002 24.07.002 36.104 0 7.439.07 14.878-.027 22.317-.06 4.646-1.8 8.819-5.73 12.118-4.207 3.533-9.419 4.593-15.127 4.157-2.128-.163-4.185-.63-6.122-1.423-5.187-2.125-8.182-5.776-9.592-10.446a16.113 16.113 0 01-.702-4.379c-.079-5.686-.033-11.373-.03-17.058 0-.267.043-.535.07-.87H31.24v-.001zm125.991 18.086c-10.852.086-18.739.17-29.604.256 0-2.994-.079-7.435-.079-10.412 7.445-.081 11.829.377 19.336.295.053-.349.026-.643.027-.887.003-4.035-.053-6.189 0-10.924.085-6.14-.387-7.675-1.451-9.352-1.331-1.57-3.216-2.137-4.592-2.366a7.435 7.435 0 00-1.35-.133c.02-1.413.179-2.658.275-3.969.154-2.099.317-4.037.392-6.026a207.141 207.141 0 013.779.178s1.791.19 3.622.846c1.847.662 3.171 1.312 4.32 2.133a12.908 12.908 0 013.27 3.382 14.121 14.121 0 011.69 3.59c.474 1.537.519 2.647.57 6.585.036 2.796.054 4.194.048 4.906-.084 9.925.524 13.352-.191 21.233-.026.294-.049.531-.062.665zm154.406.817h-10.22l.23-60.358h10.242c.036 20.1-.18 40.168-.252 60.358zm-33.382-42.6h11.14c.032.41.084.772.084 1.133.004 13.504.098 27.009-.043 40.511-.057 5.521-2.314 10.357-7.328 13.928-3.443 2.452-7.494 3.417-11.857 3.496-.131.002-.263-.054-.466-.098v-9.74c.476-.049.97-.105 1.464-.15 2.947-.263 5.009-1.576 6.116-4.018.658-1.451.902-2.957.9-4.521-.018-12.963-.01-25.925-.01-38.888v-1.653zm18.992-25.779c-.164-3.027.141-6.149-.029-9.278.17-.022 3.6.022 7.069.062 3.198.038 3.297.002 4.335.028 1.076.027 5.603-.078 8.625.488 1.954.367 5.025 1.748 8.766 4.547-1.649 2.367-3.611 4.574-6.018 7.157-1.158-1.068-1.9-1.511-2.82-2.076-.124-.077-.764-.41-1.673-.67a8.797 8.797 0 00-1.774-.315c-2.349-.082-4.263-.071-5.574-.083-1.921-.017-4.497.002-8.576.137-.717.023-1.435.003-2.331.003zm-60.824 75.493h23.581v9.92h-23.581v-9.92zm-122.291.321v9.008c-1.481.263-21.704.332-24.21.083v-9.028c1.47-.235 21.602-.296 24.21-.063zm-30.2-66.778v10.594H73.463v-10.49c1.062-.267 8.315-.344 10.467-.104zm118.802-3.357v10.912h-10.872v-10.83c3.566-.173 7.127-.042 10.872-.082z" fill="#fff"/></g><mask id="mask2_1_6" style="mask-type:luminance" maskUnits="userSpaceOnUse" x="19" y="5" width="539" height="268"><path d="M19.978 5.558h537.207V272.61H19.978V5.558z" fill="#fff"/></mask><g mask="url(#mask2_1_6)"><path d="M467.332 200.672l50.238-.323-51.14-194.79h-74.945c-9.318 36.255-18.636 72.511-27.952 108.767-6.757-.033-13.873.007-21.062.036-3.036 12.268-4.239 18.402-8.268 35.245 5.139-.089 11.175-.048 20.286-.092l-13.064 50.833 49.492.135 12.544-48.598c7.534 1.8 10.501 4.57 13.906 7.856a32.098 32.098 0 012.292 2.457c9.263-9.497 18.002-18.188 23.706-25.237-2.986-3.145-7.687-7.525-14.218-11.449-5.592-3.36-9.625-5.671-16.968-7.402l16.926-65.576 38.227 148.138z" fill="#D81921"/></g></g><mask id="mask3_1_6" style="mask-type:luminance" maskUnits="userSpaceOnUse" x="19" y="5" width="539" height="268"><path d="M19.978 5.558h537.207V272.61H19.978V5.558z" fill="#fff"/></mask><g mask="url(#mask3_1_6)"><mask id="mask4_1_6" style="mask-type:luminance" maskUnits="userSpaceOnUse" x="334" y="5" width="184" height="196"><mask id="mask5_1_6" style="mask-type:luminance" maskUnits="userSpaceOnUse" x="334" y="5" width="184" height="196"><path d="M363.917 114.43l15.973-62.152 11.901-46.311h74.336l27.136 103.361 23.79 90.617-.198.001-49.217.317-18.115-70.199-20.035-77.634-.383-1.487-.384 1.487-13.216 51.199-3.711 14.376-.105.408.4.095c7.227 1.704 11.114 3.906 16.858 7.356 5.035 3.026 9.704 6.766 13.883 11.12-4.787 5.868-11.75 12.976-19.117 20.494a2996.83 2996.83 0 00-4.035 4.124 32.538 32.538 0 00-2.041-2.159c-3.251-3.137-6.322-6.099-14.087-7.955l-.375-.09-.099.383-5.371 20.807-7.095 27.487-48.672-.132 6.852-26.662 6.081-23.66.132-.515-.518.002c-3.433.017-6.43.021-9.106.024-4.22.006-7.6.011-10.67.059 1.817-7.604 3.056-13.019 4.153-17.809 1.255-5.487 2.343-10.237 3.918-16.613l2.765-.011c4.237-.018 8.434-.037 12.532-.037 1.84 0 3.66.005 5.454.012l.307.002.079-.305zM391.485 5.558l-27.952 108.767c-1.794-.008-3.616-.011-5.455-.011-5.088 0-10.327.027-15.606.047-3.035 12.269-4.239 18.403-8.268 35.247 5.14-.089 11.176-.049 20.286-.092l-13.064 50.833 49.491.135 12.545-48.599c7.533 1.801 10.5 4.571 13.906 7.857a31.904 31.904 0 012.292 2.457c9.262-9.498 18.002-18.188 23.706-25.237-2.986-3.145-7.688-7.525-14.218-11.45-5.592-3.36-9.625-5.669-16.968-7.401l16.927-65.576 38.227 148.137 50.238-.323L466.431 5.558h-74.946z" fill="#fff"/></mask><g mask="url(#mask5_1_6)"><path d="M334.203 5.558H517.57v195.114H334.203V5.558z" fill="url(#paint0_linear_1_6)"/></g></mask><g mask="url(#mask4_1_6)"><mask id="mask6_1_6" style="mask-type:luminance" maskUnits="userSpaceOnUse" x="334" y="5" width="184" height="196"><path d="M363.917 114.43l15.973-62.152 11.901-46.311h74.336l27.136 103.361 23.79 90.617-.198.001-49.217.317-18.115-70.199-20.035-77.634-.383-1.487-.384 1.487-13.216 51.199-3.711 14.376-.105.408.4.095c7.227 1.704 11.114 3.906 16.858 7.356 5.035 3.026 9.704 6.766 13.883 11.12-4.787 5.868-11.75 12.976-19.117 20.494a2996.83 2996.83 0 00-4.035 4.124 32.538 32.538 0 00-2.041-2.159c-3.251-3.137-6.322-6.099-14.087-7.955l-.375-.09-.099.383-5.371 20.807-7.095 27.487-48.672-.132 6.852-26.662 6.081-23.66.132-.515-.518.002c-3.433.017-6.43.021-9.106.024-4.22.006-7.6.011-10.67.059 1.817-7.604 3.056-13.019 4.153-17.809 1.255-5.487 2.343-10.237 3.918-16.613l2.765-.011c4.237-.018 8.434-.037 12.532-.037 1.84 0 3.66.005 5.454.012l.307.002.079-.305zM391.485 5.558l-27.952 108.767c-1.794-.008-3.616-.011-5.455-.011-5.088 0-10.327.027-15.606.047-3.035 12.269-4.239 18.403-8.268 35.247 5.14-.089 11.176-.049 20.286-.092l-13.064 50.833 49.491.135 12.545-48.599c7.533 1.801 10.5 4.571 13.906 7.857a31.904 31.904 0 012.292 2.457c9.262-9.498 18.002-18.188 23.706-25.237-2.986-3.145-7.688-7.525-14.218-11.45-5.592-3.36-9.625-5.669-16.968-7.401l16.927-65.576 38.227 148.137 50.238-.323L466.431 5.558h-74.946z" fill="#fff"/></mask><g mask="url(#mask6_1_6)"><path d="M334.203 5.558H517.57v195.114H334.203V5.558z" fill="url(#paint1_linear_1_6)"/></g></g></g><mask id="mask7_1_6" style="mask-type:luminance" maskUnits="userSpaceOnUse" x="19" y="5" width="539" height="268"><path d="M19.978 5.558h537.207V272.61H19.978V5.558z" fill="#fff"/></mask><g mask="url(#mask7_1_6)"><mask id="mask8_1_6" style="mask-type:luminance" maskUnits="userSpaceOnUse" x="19" y="5" width="539" height="268"><path d="M19.978 5.558h537.207V272.61H19.978V5.558z" fill="#fff"/></mask><g mask="url(#mask8_1_6)"><path d="M28.223 187.874l-2.406 7.86h-5.049l9.424-30.867h6.4l9.83 30.867h-5.4l-2.512-7.86H28.223zm9.135-4.797c-2.166-7.062-3.468-11.275-4.103-13.905h-.04c-.67 2.898-2.115 7.869-3.854 13.905h7.997zm20.255-.123v12.78h-5.021v-30.867H64.13c5.834 0 8.964 3.616 8.964 8.4 0 4.098-2.009 6.405-4.202 7.289 1.652.602 3.657 2.293 3.657 7.761v1.455c0 2.093-.019 4.569.383 5.962H68.05c-.485-1.339-.533-3.682-.533-6.829v-.522c0-3.724-.871-5.429-5.44-5.429h-4.465zm0-13.415v8.743h5.286c3.555 0 5.002-1.521 5.002-4.407 0-2.774-1.602-4.335-4.77-4.335l-5.518-.001zm28.555-4.672v30.867H81.05v-30.867h5.12zm13.81 23.007l-2.407 7.86h-5.048l9.424-30.867h6.4l9.83 30.867h-5.4l-2.512-7.86H99.977zm9.133-4.797c-2.165-7.062-3.467-11.275-4.103-13.905h-.039c-.671 2.898-2.115 7.869-3.854 13.905h7.996zm15.235 12.657v-30.867h6.451c3.583 7.029 10.643 20.507 11.992 23.867h.067c-.292-3.475-.281-8.667-.281-13.724v-10.143h4.689v30.866h-6.103c-3.164-6.26-10.797-21.359-12.273-24.889h-.067c.198 2.98.241 8.939.241 14.483v10.406h-4.716v.001zm44.166-30.867h10.457c7.855 0 13.049 5.918 13.049 15.072 0 9.046-5.048 15.795-13.254 15.795h-10.252v-30.867zm9.991 26.132c5.642 0 8.21-4.676 8.21-11.02 0-5.403-2.378-10.377-8.182-10.377h-4.899v21.397h4.871zm26.388-26.132v30.867h-5.12v-30.867h5.12zm27.457 17.172h-13.232v8.897h14.574l-.62 4.798h-18.936v-30.867h18.814v4.798h-13.832v7.577h13.232v4.797zm11.838 4.803c.663 3.306 2.723 4.885 6.155 4.885 3.53 0 4.994-1.699 4.994-4.183 0-2.712-1.326-4.023-6.27-5.344-7.087-1.902-9.059-4.764-9.059-8.99 0-5.107 3.363-8.789 9.699-8.789 6.992 0 9.806 4.352 10.189 8.709h-5.171c-.354-2.19-1.486-4.318-5.164-4.318-2.713 0-4.303 1.315-4.303 3.765 0 2.404 1.29 3.367 5.828 4.576 7.886 2.124 9.501 5.494 9.501 9.712 0 5.411-3.597 9.289-10.627 9.289-6.907 0-10.319-3.989-10.942-9.311h5.17v-.001zm41.721-4.803h-13.233v8.897h14.575l-.62 4.798h-18.936v-30.867h18.814v4.798h-13.833v7.577h13.233v4.797zm8.229-17.172h5.12v26.069h13.816l-.616 4.798h-18.32v-30.867zM25.802 227.048v11.617c0 1.899.872 2.868 2.617 2.905 1.791-.037 2.687-1.006 2.687-2.905v-11.617h5.896v12.21a7.073 7.073 0 01-.27 1.744c-.187.654-.927 2.874-3.124 4.104a6.265 6.265 0 01-2.886.779h-4.92v15.311h-5.824l.07-34.148h5.754zm28.128 0h5.876v34.148H53.93v-34.148zm27.428 0h5.928v34.148h-5.928v-34.148zm27.466 0h5.903v34.148h-5.903v-34.148zm137.939 13.503c1.492 1.395 2.246 3.469 2.246 6.17v12.887h-75.917l-.26.006-2.316.021-.528-.011v.49c0 3.991-.999 7.018-2.968 9.01-1.778 1.779-4.262 2.676-7.39 2.676h-13.691c-2.976 0-5.484-.971-7.46-2.905-2.088-2.049-3.144-4.832-3.144-8.268v-17.358h5.852v18.166c0 1.363.492 2.465 1.468 3.264.81.661 2.292 1.004 3.316 1.004h13.315c2.159 0 4.723-.979 4.723-5.647v-.49h-8.864v-5.851l87.956.007v-8.438c0-1.362-1.88-2.987-5.181-2.987-.977 0-2.056.139-3.215.417-.913.204-1.849.489-2.794.849l-1.468 1.012-1.548-4.399 18.041-14.559 2.222 6.128-9.612 6.595 1.405.089c2.526.164 4.486.874 5.812 2.122z" fill="#fff"/></g><mask id="mask9_1_6" style="mask-type:luminance" maskUnits="userSpaceOnUse" x="19" y="5" width="539" height="268"><path d="M19.978 5.558h537.207V272.61H19.978V5.558z" fill="#fff"/></mask><g mask="url(#mask9_1_6)"><path d="M245.532 223.421l-16.54 13.384.016-3.371 15.652-12.51.872 2.497zm272.218-.144v6.178h-6.397v-6.145c1.373-.057 2.738-.049 4.182-.041.731.008 1.469.016 2.215.008zm-129.375 43.155v6.178h-6.397v-6.145c1.373-.057 2.738-.049 4.182-.041.731.008 1.47.017 2.215.008zm-35.473-43.155v6.178h-6.397v-6.145c1.373-.057 2.739-.049 4.183-.041.73.008 1.468.016 2.214.008zm25.897 43.155v6.178h-6.398v-6.145c1.373-.057 2.739-.049 4.183-.041.73.008 1.468.017 2.215.008zm133.132-30.598v15.179c0 1.747-2.337 2.709-4.178 2.709h-23.144l.118-.587c.032-.139.04-.269.04-.408v-.531c0-3.362-.889-6.104-2.635-8.153-1.833-2.114-4.381-3.191-7.563-3.191-3.183 0-5.715 1.077-7.541 3.191-1.762 2.049-2.658 4.79-2.658 8.153v1.526h-51.717c-1.897 0-2.937-.962-2.937-2.709v-25.201h-5.817v26.197c0 5.174 3.198 7.688 9.794 7.688h51.851l.135.262c1.785 3.509 4.69 5.215 8.89 5.215 4.23 0 7.127-1.706 8.865-5.207l.127-.269h24.391c6.047 0 9.801-3.55 9.801-9.263v-14.6h-5.822v-.001zm-37.299 24.557c-2.373 0-3.222-4.285-3.222-8.292 0-2.228.175-3.852.532-4.954.611-1.861 1.77-2.252 2.627-2.252.849 0 1.985.391 2.603 2.252.357 1.11.532 2.726.532 4.954 0 5.272-1.12 8.292-3.072 8.292zm-78.567-25.602v16.682c0 5.443-3.198 8.088-9.77 8.088h-29.694c-1.715 0-3.222-.221-4.493-.645-.992-.31-1.849-.775-2.54-1.363l-.277-.236-.302.212a9.658 9.658 0 01-2.77 1.388c-1.365.424-2.976.644-4.801.644h-51.51c-12.453.025-15.612-.114-16.08-.236l-.286-.073c-.984-.246-2.326-.58-3.112-1.657l-.389-.531-.54.767c-.674.963-1.04 1.494-2.428 1.73h-11.819v-6.031h.048v-.007c.897 0 1.802.008 2.81.032h6.357c.262 0 .5-.016.722-.049l.397-.056.015-.408c.008-.098.008-.18.008-.319 0-.791-.008-1.453-.008-2.089-.007-1.126-.015-2.187.008-3.819.039-3.306-.182-4.268-.889-5.387-.635-.759-1.555-1.248-2.714-1.444a2.352 2.352 0 00-.317-.049c.016-.335.048-.661.071-.996.024-.22.04-.44.056-.66l.047-.653c.055-.727.111-1.429.143-2.131.239.008.476.017.715.033l.794.041c.007 0 .912.098 1.817.432.945.343 1.619.677 2.183 1.094.532.384 1.325 1.053 1.436 1.175.135.147.453.49.715.89.317.481.571 1.053.77 1.697.222.751.254 1.281.277 3.428.024 1.501.032 2.26.032 2.644l-.016 1.763c-.016 1.632-.023 2.571-.039 3.346l-.008.081.024.074c.254.889 1.897 1.722 18.509 1.387.603-.016 1.04-.024 1.23-.024h53.75c.937 0 1.715-.261 2.326-.775l.174-.147v-17.841h5.907v15.735c0 1.95 1.159 3.027 3.262 3.027h31.474c1.841 0 2.857-1.004 2.857-2.815v-15.947h5.868v-.002z" fill="#fff"/></g></g><mask id="mask10_1_6" style="mask-type:luminance" maskUnits="userSpaceOnUse" x="19" y="5" width="539" height="268"><path d="M19.978 5.558h537.207V272.61H19.978V5.558z" fill="#fff"/></mask><g mask="url(#mask10_1_6)"><path d="M348.825 175.759l22.583 18.289 32.351-42.544-44.781-17.394-10.153 41.649z" fill="url(#paint2_linear_1_6)" fill-opacity=".62"/></g><path d="M411.679 118.387c-4.288-1.011-9.202-2.104-16.72-2.815-5.403-.511-12.424-.922-20.252-1.104-3.569-.082-7.031.255-10.892.236-3.014 11.73-5.787 22.695-8.801 34.425a345.335 345.335 0 0148.168 2.3c2.905-11.258 5.591-21.783 8.497-33.042z" fill="#D81921"/></g><defs><linearGradient id="paint0_linear_1_6" x1="334.203" y1="103.101" x2="517.583" y2="103.101" gradientUnits="userSpaceOnUse"><stop stop-color="#4D4D4D"/><stop offset=".131" stop-color="#4D4D4D"/><stop offset=".303" stop-color="#535353"/><stop offset=".54" stop-color="#646464"/><stop offset=".813" stop-color="#818181"/><stop offset=".998" stop-color="#999"/><stop offset="1" stop-color="#999"/></linearGradient><linearGradient id="paint1_linear_1_6" x1="334.203" y1="103.101" x2="517.583" y2="103.101" gradientUnits="userSpaceOnUse"><stop stop-color="#231F20"/><stop offset=".131" stop-color="#231F20"/><stop offset=".998" stop-color="#231F20"/><stop offset="1" stop-color="#231F20"/></linearGradient><linearGradient id="paint2_linear_1_6" x1="361.193" y1="166.323" x2="443.142" y2="122.831" gradientUnits="userSpaceOnUse"><stop offset=".172" stop-opacity="0"/><stop offset=".804"/></linearGradient><clipPath id="clip0_1_6"><path fill="#fff" d="M0 0h548v276H0z"/></clipPath></defs></svg>